<svg id="Capa_1" enable-background="new 0 0 512 512" height="512" viewBox="0 0 512 512" width="512" xmlns="http://www.w3.org/2000/svg"><g><g><g><path d="m273.719 267.618c-22.312-8.409-12.84-4.84-41.769-15.738l-129.21-12.51c-4.91 3.34-9.55 7.17-13.84 11.46l-75.32 75.33c-8.76 8.75-13.58 20.4-13.58 32.78v61.7c0 25.56 20.8 46.36 46.36 46.36h209.64l15-33.226z" fill="#94e671"/></g></g><path d="m512 381.88v44.01c0 22.67-18.44 41.11-41.11 41.11h-214.89v-206.06l151.42 57.07.18.06 76.01 24.72c16.98 5.52 28.39 21.23 28.39 39.09z" fill="#52cc7b"/><path d="m279.09 268.35-23.09 49.72h-96.91c-31.12 0-56.35-25.23-56.35-56.35v-22.35c6.26-4.25 12.96-7.71 20-10.31 10.42-3.89 21.56-5.91 33-5.91h100.26z" fill="#404a80"/><g><g><g><path d="m312.264 376.16h-26.694c-8.284 0-15-6.716-15-15s6.716-15 15-15h26.694c8.284 0 15 6.716 15 15s-6.716 15-15 15z" fill="#3d997a"/></g></g></g><g><g><path d="m256 146.48c-8.28 0-15 6.72-15 15 0 8.29 6.72 15 15 15l7.5-16.355z" fill="#8095ff"/></g><g><path d="m265.125 83.332-9.125-10.092c-23.58 0-45.74 9.18-62.4 25.85-5.86 5.85-5.86 15.35 0 21.21 5.849 5.848 15.352 5.858 21.21 0 11-11 25.63-17.06 41.19-17.06l9.125-11.17z" fill="#8095ff"/></g><g><path d="m265.125 10.218-9.125-10.218c-43.14 0-83.7 16.8-114.19 47.3-5.85 5.86-5.85 15.36.01 21.22s15.349 5.851 21.21-.01c24.82-24.83 57.84-38.51 92.97-38.51l9.125-9.296z" fill="#8095ff"/></g></g><circle cx="106.249" cy="452" fill="#e8f1fd" r="36.792"/><circle cx="405.751" cy="452" fill="#cfdbfd" r="36.792"/><g><path d="m106.249 512c-33.084 0-60-26.916-60-60s26.916-60 60-60 60 26.916 60 60-26.916 60-60 60zm0-90c-16.542 0-30 13.458-30 30s13.458 30 30 30 30-13.458 30-30-13.458-30-30-30z" fill="#404a80"/></g><g><path d="m405.751 512c-33.084 0-60-26.916-60-60s26.916-60 60-60 60 26.916 60 60-26.916 60-60 60zm0-90c-16.542 0-30 13.458-30 30s13.458 30 30 30 30-13.458 30-30-13.458-30-30-30z" fill="#283366"/></g><path d="m407.6 318.07h-151.6v-94.92h29.72c17.31 0 33.58 6.74 45.82 18.98l75.88 75.88z" fill="#283366"/><g fill="#66f"><path d="m271 161.48c0 8.29-6.72 15-15 15v-30c8.28 0 15 6.72 15 15z"/><path d="m318.4 99.08c5.86 5.86 5.86 15.36 0 21.22s-15.35 5.86-21.21 0c-11-11-25.63-17.06-41.19-17.06v-30c23.58 0 45.74 9.18 62.4 25.84z"/><path d="m370.18 68.52c-5.85 5.85-15.35 5.85-21.21-.01-24.82-24.83-57.84-38.51-92.97-38.51v-30c43.14 0 83.7 16.8 114.19 47.3 5.85 5.86 5.85 15.36-.01 21.22z"/></g></g></svg>